<?xml version="1.0" encoding="UTF-8"?>
<!DOCTYPE svg PUBLIC "-//W3C//DTD SVG 1.1//EN" "http://www.w3.org/Graphics/SVG/1.1/DTD/svg11.dtd">
<!-- Creator: CorelDRAW 2019 (64-Bit) -->
<svg xmlns="http://www.w3.org/2000/svg" xml:space="preserve" width="56.3207mm" height="56.3248mm" version="1.1" style="shape-rendering:geometricPrecision; text-rendering:geometricPrecision; image-rendering:optimizeQuality; fill-rule:evenodd; clip-rule:evenodd"
viewBox="0 0 18222.89 18224.21"
 xmlns:xlink="http://www.w3.org/1999/xlink">
 <defs>
  <style type="text/css">
   <![CDATA[
    .fil1 {fill:#2A4D2E;fill-rule:nonzero}
    .fil3 {fill:#3A6B40;fill-rule:nonzero}
    .fil2 {fill:#53995B;fill-rule:nonzero}
    .fil5 {fill:lightgrey;fill-rule:nonzero}
    .fil4 {fill:#F6D874;fill-rule:nonzero}
    .fil6 {fill:#F8F8F8;fill-rule:nonzero}
    .fil0 {fill:url(#id0)}
   ]]>
  </style>
  <radialGradient id="id0" gradientUnits="userSpaceOnUse" gradientTransform="matrix(8.79765 -0 -0 -8.79765 239590 -67466)" cx="-30725.92" cy="-6885.95" r="8997.96" fx="-30725.92" fy="-6885.95">
   <stop offset="0" style="stop-opacity:1; stop-color:#525255"/>
   <stop offset="1" style="stop-opacity:1; stop-color:#2E2A29"/>
  </radialGradient>
 </defs>
 <g id="Слой_x0020_1">
  <metadata id="CorelCorpID_0Corel-Layer"/>
  <path class="fil0" d="M17144.12 18224.21l-15381.26 0c-413.67,0 -775.05,-236.03 -955.85,-580.2 45.1,-129.36 370.63,16.31 550.4,16.31l15334.18 42.77c593.17,0 993.19,-421.37 993.19,-1014.57l24.91 -12792.65 56.4 46.75 451.42 457.7 5.37 -0.68 0 12745.93c0,593.21 -485.56,1078.64 -1078.77,1078.64zm-477.96 -1301.05c-18.15,0 -56.2,2.56 -73.45,-0.61 -3.2,-17.12 -13.43,-57.27 -13.43,-75.32 0,-158.32 161.36,-310.26 319.67,-310.26 18.15,0 51.87,4.92 69.11,8.12 3.17,17.25 15.6,54.29 15.6,72.57 0,158.09 -159.19,305.5 -317.51,305.5zm-15805.86 1.07c-18.15,0 -71.18,-9.19 -88.43,-12.36 -3.2,-17.12 -3.82,-59.44 -3.82,-77.49 0,-158.32 146.38,-299.55 304.69,-299.55 18.15,0 75.45,7.02 92.67,10.22 3.2,17.25 -0.42,54.33 -0.42,72.61 0,158.09 -146.38,306.57 -304.69,306.57zm16569.84 -13215.96c-2.17,102.08 -310.29,1.97 -408.33,-62.51 -82.18,-124.99 -117.06,-329.22 -117.06,-490.03 0,-438.22 246.29,-840.34 684.84,-840.34l94.09 -42.19 -12.81 -971.28c0,-179.54 -78.82,-496.98 -27.73,-493.23 343.81,180.9 579.75,542.05 579.75,955.62l0 1048.97 -5.37 -0.45c-438.55,0 -793.88,355.33 -793.88,793.52 0,34.59 2.17,68.59 6.5,101.92zm-16746.05 -884.83l-456.83 -457.02c-4.63,-92.18 54.49,-86.29 89.62,-86.29 159.12,0 404.7,65.46 528.56,146.47 64.48,98.52 188.83,343.84 37.82,392.51 -31.64,-3.88 -63.93,-5.82 -96.71,-5.82 -35.14,0 -68.59,5.69 -102.47,10.16zm16007.76 -1590.66c-18.15,0 -102.15,-14.66 -119.39,-17.86 -3.2,-17.21 -14.59,-57.3 -14.59,-75.45 0,-158.32 161.36,-352.87 319.67,-352.87 18.15,0 101.11,22.55 118.36,25.76 3.17,17.25 3.3,83.67 3.3,101.79 0,158.32 -149.03,318.64 -307.35,318.64zm-15836.92 -21.45c-18.15,0 -59.73,-10.26 -76.97,-13.46 -3.2,-17.21 -10.45,-65.39 -10.45,-83.54 0,-158.32 147.44,-309.51 305.76,-309.51 18.15,0 92.63,10.26 109.85,13.46 3.2,17.25 -1.52,75.1 -1.52,93.22 0,158.32 -168.35,299.84 -326.66,299.84z"/>
  <path class="fil1" d="M16896.95 1412.06c-158.32,0 -286.48,-128.19 -286.48,-286.51 0,-158.32 128.16,-286.51 286.48,-286.51 17.6,0 34.85,1.62 51.57,4.63 133.63,24.27 234.93,141.17 234.93,281.88 0,158.32 -128.19,286.51 -286.51,286.51zm286.51 15434.09c0,157.99 -128.19,286.28 -286.51,286.28 -158.32,0 -286.48,-128.29 -286.48,-286.28 0,-158.32 128.16,-286.7 286.48,-286.7 158.32,0 286.51,128.39 286.51,286.7zm-16095.57 -15434.09c-158.32,0 -286.51,-128.19 -286.51,-286.51 0,-158.32 128.19,-286.51 286.51,-286.51 158.32,0 286.51,128.19 286.51,286.51 0,158.32 -128.19,286.51 -286.51,286.51zm0 15720.38c-158.32,0 -286.51,-128.29 -286.51,-286.28 0,-158.32 128.19,-286.7 286.51,-286.7 158.32,0 286.51,128.39 286.51,286.7 0,157.99 -128.19,286.28 -286.51,286.28zm16674.06 -14776.66l5.37 0.36 0 -1048.87c0,-593.21 -485.59,-1078.77 -1078.77,-1078.77l-15381.29 0c-593.17,0 -1078.77,485.56 -1078.77,1078.77l-228.5 830.63 228.5 228.53c33.91,-4.47 67.36,-10.29 102.5,-10.29 435.25,0 787.96,352.71 787.96,787.92 0,435.12 -352.71,787.83 -787.96,787.83 -35.14,0 -68.59,-5.82 -102.5,-10.26l0 12766.89c0,593.21 485.59,1078.77 1078.77,1078.77l15381.29 0c593.17,0 1078.77,-485.56 1078.77,-1078.77l0 -12745.9 -228.53 -228.53c0,0 -29.9,197.92 -138.45,142.46 -256.61,-131.62 -432.27,-398.81 -432.27,-707.23 0,-438.22 355.33,-793.55 793.88,-793.55z"/>
  <path class="fil2" d="M16668.46 1183.53c-158.32,0 -286.51,-128.19 -286.51,-286.51 0,-158.32 128.19,-286.48 286.51,-286.48 158.32,0 286.48,128.16 286.48,286.48 0,158.32 -128.16,286.51 -286.48,286.51zm286.48 15434.13c0,158.09 -128.16,286.25 -286.48,286.25 -158.32,0 -286.51,-128.16 -286.51,-286.25 0,-158.32 128.19,-286.74 286.51,-286.74 158.32,0 286.48,128.42 286.48,286.74zm-16095.57 -15434.13c-158.19,0 -286.48,-128.19 -286.48,-286.51 0,-158.32 128.29,-286.48 286.48,-286.48 158.32,0 286.51,128.16 286.51,286.48 0,158.32 -128.19,286.51 -286.51,286.51zm0 15720.38c-158.19,0 -286.48,-128.16 -286.48,-286.25 0,-158.32 128.29,-286.74 286.48,-286.74 158.32,0 286.51,128.42 286.51,286.74 0,158.09 -128.19,286.25 -286.51,286.25zm16674.06 -14776.63l5.37 0.45 0 -1048.97c0,-593.21 -485.56,-1078.77 -1078.77,-1078.77l-15381.26 0c-593.21,0 -1078.77,485.56 -1078.77,1078.77l0 1059.13c33.91,-4.47 67.56,-10.16 102.5,-10.16 435.21,0 787.92,352.58 787.92,787.83 0,435.21 -352.71,787.79 -787.92,787.79 -34.94,0 -68.59,-5.82 -102.5,-10.26l0 12766.93c0,593.21 485.56,1078.77 1078.77,1078.77l15381.26 0c593.21,0 1078.77,-485.56 1078.77,-1078.77l0 -12745.93 -5.37 0.68c-438.55,0 -793.88,-355.43 -793.88,-793.88 0,-438.29 355.33,-793.62 793.88,-793.62z"/>
  <path class="fil3" d="M14794.91 15822.43l-11594.23 0c-340.48,0 -643.75,-168.02 -830.96,-425.18 169.51,123.6 377.91,196.66 602.69,196.66l11594.2 0c564.9,0 1027.29,-462.39 1027.29,-1027.29l0 -1728.24c428.74,-79.56 756.67,-456.34 756.67,-907.31l0 -6323.31c0,-195.52 -61.64,-377.01 -166.31,-526.55 238.1,167.21 394.58,443.47 394.58,755.05l0 6323.31c0,451 -327.7,827.78 -756.64,907.35l0 1728.24c0,564.9 -462.17,1027.29 -1027.29,1027.29zm-12849.79 -2829.72c-145.54,-69.53 -270.3,-175.79 -362.06,-306.73 106.58,74.9 229.4,127.87 362.06,152.39l0 154.34zm13877.08 -8218.09c-71.57,-34.14 -148.16,-59.37 -228.3,-74.19l0 -1728.27c0,-224.39 -72.93,-432.59 -196.33,-602.1 256.94,187.21 424.63,490.25 424.63,830.63l0 1573.94z"/>
  <path class="fil3" d="M3118.62 957.53c-151.81,0 -275.09,-123.27 -275.09,-275.09 0,-151.91 123.27,-275.18 275.09,-275.18 152.04,0 275.09,123.27 275.09,275.18 0,151.81 -123.05,275.09 -275.09,275.09z"/>
  <path class="fil3" d="M3962.94 957.53c-151.81,0 -275.22,-123.27 -275.22,-275.09 0,-151.91 123.4,-275.18 275.22,-275.18 152.04,0 275.09,123.27 275.09,275.18 0,151.81 -123.05,275.09 -275.09,275.09z"/>
  <path class="fil3" d="M4807.36 957.53c-152.04,0 -275.09,-123.27 -275.09,-275.09 0,-151.91 123.05,-275.18 275.09,-275.18 151.81,0 275.09,123.27 275.09,275.18 0,151.81 -123.27,275.09 -275.09,275.09z"/>
  <path class="fil3" d="M5651.68 957.53c-152.04,0 -275.18,-123.27 -275.18,-275.09 0,-151.91 123.15,-275.18 275.18,-275.18 151.81,0 275.09,123.27 275.09,275.18 0,151.81 -123.27,275.09 -275.09,275.09z"/>
  <path class="fil3" d="M6495.9 957.53c-152.04,0 -275.09,-123.27 -275.09,-275.09 0,-151.91 123.05,-275.18 275.09,-275.18 152.04,0 275.09,123.27 275.09,275.18 0,151.81 -123.05,275.09 -275.09,275.09z"/>
  <path class="fil3" d="M7340.22 957.53c-152.17,0 -275.22,-123.27 -275.22,-275.09 0,-151.91 123.05,-275.18 275.22,-275.18 152.04,0 275.09,123.27 275.09,275.18 0,151.81 -123.05,275.09 -275.09,275.09z"/>
  <path class="fil3" d="M8184.41 957.53c-151.81,0 -275.09,-123.27 -275.09,-275.09 0,-151.91 123.27,-275.18 275.09,-275.18 152.04,0 275.09,123.27 275.09,275.18 0,151.81 -123.05,275.09 -275.09,275.09z"/>
  <path class="fil3" d="M3118.62 1677.09c-151.81,0 -275.09,-123.27 -275.09,-275.09 0,-151.81 123.27,-275.09 275.09,-275.09 152.04,0 275.09,123.27 275.09,275.09 0,151.81 -123.05,275.09 -275.09,275.09z"/>
  <path class="fil3" d="M3962.94 1677.09c-151.81,0 -275.22,-123.27 -275.22,-275.09 0,-151.81 123.4,-275.09 275.22,-275.09 152.04,0 275.09,123.27 275.09,275.09 0,151.81 -123.05,275.09 -275.09,275.09z"/>
  <path class="fil3" d="M4807.36 1677.09c-152.04,0 -275.09,-123.27 -275.09,-275.09 0,-151.81 123.05,-275.09 275.09,-275.09 151.81,0 275.09,123.27 275.09,275.09 0,151.81 -123.27,275.09 -275.09,275.09z"/>
  <path class="fil3" d="M5651.68 1677.09c-152.04,0 -275.18,-123.27 -275.18,-275.09 0,-151.81 123.15,-275.09 275.18,-275.09 151.81,0 275.09,123.27 275.09,275.09 0,151.81 -123.27,275.09 -275.09,275.09z"/>
  <path class="fil3" d="M6495.9 1677.09c-152.04,0 -275.09,-123.27 -275.09,-275.09 0,-151.81 123.05,-275.09 275.09,-275.09 152.04,0 275.09,123.27 275.09,275.09 0,151.81 -123.05,275.09 -275.09,275.09z"/>
  <path class="fil3" d="M7340.22 1677.09c-152.17,0 -275.22,-123.27 -275.22,-275.09 0,-151.81 123.05,-275.09 275.22,-275.09 152.04,0 275.09,123.27 275.09,275.09 0,151.81 -123.05,275.09 -275.09,275.09z"/>
  <path class="fil3" d="M8184.41 1677.09c-151.81,0 -275.09,-123.27 -275.09,-275.09 0,-151.81 123.27,-275.09 275.09,-275.09 152.04,0 275.09,123.27 275.09,275.09 0,151.81 -123.05,275.09 -275.09,275.09z"/>
  <path class="fil3" d="M9538.71 16540.49c-152.04,0 -275.09,-123.27 -275.09,-275.09 0,-151.81 123.05,-275.09 275.09,-275.09 151.81,0 275.09,123.27 275.09,275.09 0,151.81 -123.27,275.09 -275.09,275.09z"/>
  <path class="fil3" d="M10383.03 16540.49c-152.04,0 -275.09,-123.27 -275.09,-275.09 0,-151.81 123.05,-275.09 275.09,-275.09 152.04,0 275.09,123.27 275.09,275.09 0,151.81 -123.05,275.09 -275.09,275.09z"/>
  <path class="fil3" d="M11227.25 16540.49c-152.04,0 -275.09,-123.27 -275.09,-275.09 0,-151.81 123.05,-275.09 275.09,-275.09 152.04,0 275.05,123.27 275.05,275.09 0,151.81 -123.02,275.09 -275.05,275.09z"/>
  <path class="fil3" d="M12071.54 16540.49c-151.78,0 -275.05,-123.27 -275.05,-275.09 0,-151.81 123.27,-275.09 275.05,-275.09 152.04,0 275.09,123.27 275.09,275.09 0,151.81 -123.05,275.09 -275.09,275.09z"/>
  <path class="fil3" d="M12915.76 16540.49c-151.81,0 -275.09,-123.27 -275.09,-275.09 0,-151.81 123.27,-275.09 275.09,-275.09 152.04,0 275.09,123.27 275.09,275.09 0,151.81 -123.05,275.09 -275.09,275.09z"/>
  <path class="fil3" d="M13760.31 16540.49c-152.04,0 -275.22,-123.27 -275.22,-275.09 0,-151.81 123.18,-275.09 275.22,-275.09 151.81,0 275.09,123.27 275.09,275.09 0,151.81 -123.27,275.09 -275.09,275.09z"/>
  <path class="fil3" d="M14604.5 16540.49c-152.04,0 -275.09,-123.27 -275.09,-275.09 0,-151.81 123.05,-275.09 275.09,-275.09 151.81,0 275.09,123.27 275.09,275.09 0,151.81 -123.27,275.09 -275.09,275.09z"/>
  <path class="fil3" d="M9538.71 17260.18c-152.04,0 -275.09,-123.27 -275.09,-275.09 0,-151.94 123.05,-275.22 275.09,-275.22 151.81,0 275.09,123.27 275.09,275.22 0,151.81 -123.27,275.09 -275.09,275.09z"/>
  <path class="fil3" d="M10383.03 17260.18c-152.04,0 -275.09,-123.27 -275.09,-275.09 0,-151.94 123.05,-275.22 275.09,-275.22 152.04,0 275.09,123.27 275.09,275.22 0,151.81 -123.05,275.09 -275.09,275.09z"/>
  <path class="fil3" d="M11227.25 17260.18c-152.04,0 -275.09,-123.27 -275.09,-275.09 0,-151.94 123.05,-275.22 275.09,-275.22 152.04,0 275.05,123.27 275.05,275.22 0,151.81 -123.02,275.09 -275.05,275.09z"/>
  <path class="fil3" d="M12071.54 17260.18c-151.78,0 -275.05,-123.27 -275.05,-275.09 0,-151.94 123.27,-275.22 275.05,-275.22 152.04,0 275.09,123.27 275.09,275.22 0,151.81 -123.05,275.09 -275.09,275.09z"/>
  <path class="fil3" d="M12915.76 17260.18c-151.81,0 -275.09,-123.27 -275.09,-275.09 0,-151.94 123.27,-275.22 275.09,-275.22 152.04,0 275.09,123.27 275.09,275.22 0,151.81 -123.05,275.09 -275.09,275.09z"/>
  <path class="fil3" d="M13760.31 17260.18c-152.04,0 -275.22,-123.27 -275.22,-275.09 0,-151.94 123.18,-275.22 275.22,-275.22 151.81,0 275.09,123.27 275.09,275.22 0,151.81 -123.27,275.09 -275.09,275.09z"/>
  <path class="fil3" d="M14604.5 17260.18c-152.04,0 -275.09,-123.27 -275.09,-275.09 0,-151.94 123.05,-275.22 275.09,-275.22 151.81,0 275.09,123.27 275.09,275.22 0,151.81 -123.27,275.09 -275.09,275.09z"/>
  <path class="fil4" d="M3333.08 621.49c0,151.81 -123.27,275.09 -275.09,275.09 -152.04,0 -275.05,-123.27 -275.05,-275.09 0,-151.81 123.02,-275.09 275.05,-275.09 151.81,0 275.09,123.27 275.09,275.09z"/>
  <path class="fil4" d="M4177.4 621.49c0,151.81 -123.15,275.09 -275.18,275.09 -152.04,0 -275.09,-123.27 -275.09,-275.09 0,-151.81 123.05,-275.09 275.09,-275.09 152.04,0 275.18,123.27 275.18,275.09z"/>
  <path class="fil4" d="M5021.62 621.49c0,151.81 -123.05,275.09 -275.09,275.09 -152.04,0 -275.09,-123.27 -275.09,-275.09 0,-151.81 123.05,-275.09 275.09,-275.09 152.04,0 275.09,123.27 275.09,275.09z"/>
  <path class="fil4" d="M5865.94 621.49c0,151.81 -123.18,275.09 -275.22,275.09 -151.81,0 -275.09,-123.27 -275.09,-275.09 0,-151.81 123.27,-275.09 275.09,-275.09 152.04,0 275.22,123.27 275.22,275.09z"/>
  <path class="fil4" d="M6710.13 621.49c0,151.81 -123.05,275.09 -275.09,275.09 -151.81,0 -275.09,-123.27 -275.09,-275.09 0,-151.81 123.27,-275.09 275.09,-275.09 152.04,0 275.09,123.27 275.09,275.09z"/>
  <path class="fil4" d="M7554.57 621.49c0,151.81 -123.27,275.09 -275.09,275.09 -152.04,0 -275.09,-123.27 -275.09,-275.09 0,-151.81 123.05,-275.09 275.09,-275.09 151.81,0 275.09,123.27 275.09,275.09z"/>
  <path class="fil4" d="M8398.89 621.49c0,151.81 -123.27,275.09 -275.09,275.09 -152.04,0 -275.09,-123.27 -275.09,-275.09 0,-151.81 123.05,-275.09 275.09,-275.09 151.81,0 275.09,123.27 275.09,275.09z"/>
  <path class="fil4" d="M3333.08 1341.17c0,151.81 -123.27,275.09 -275.09,275.09 -152.04,0 -275.05,-123.27 -275.05,-275.09 0,-151.81 123.02,-275.09 275.05,-275.09 151.81,0 275.09,123.27 275.09,275.09z"/>
  <path class="fil4" d="M4177.4 1341.17c0,151.81 -123.15,275.09 -275.18,275.09 -152.04,0 -275.09,-123.27 -275.09,-275.09 0,-151.81 123.05,-275.09 275.09,-275.09 152.04,0 275.18,123.27 275.18,275.09z"/>
  <path class="fil4" d="M5021.62 1341.17c0,151.81 -123.05,275.09 -275.09,275.09 -152.04,0 -275.09,-123.27 -275.09,-275.09 0,-151.81 123.05,-275.09 275.09,-275.09 152.04,0 275.09,123.27 275.09,275.09z"/>
  <path class="fil4" d="M5865.94 1341.17c0,151.81 -123.18,275.09 -275.22,275.09 -151.81,0 -275.09,-123.27 -275.09,-275.09 0,-151.81 123.27,-275.09 275.09,-275.09 152.04,0 275.22,123.27 275.22,275.09z"/>
  <path class="fil4" d="M6710.13 1341.17c0,151.81 -123.05,275.09 -275.09,275.09 -151.81,0 -275.09,-123.27 -275.09,-275.09 0,-151.81 123.27,-275.09 275.09,-275.09 152.04,0 275.09,123.27 275.09,275.09z"/>
  <path class="fil4" d="M7554.57 1341.17c0,151.81 -123.27,275.09 -275.09,275.09 -152.04,0 -275.09,-123.27 -275.09,-275.09 0,-151.81 123.05,-275.09 275.09,-275.09 151.81,0 275.09,123.27 275.09,275.09z"/>
  <path class="fil4" d="M8398.89 1341.17c0,151.81 -123.27,275.09 -275.09,275.09 -152.04,0 -275.09,-123.27 -275.09,-275.09 0,-151.81 123.05,-275.09 275.09,-275.09 151.81,0 275.09,123.27 275.09,275.09z"/>
  <path class="fil4" d="M9752.97 16204.58c0,151.81 -123.05,275.09 -275.09,275.09 -151.81,0 -275.09,-123.27 -275.09,-275.09 0,-151.81 123.27,-275.09 275.09,-275.09 152.04,0 275.09,123.27 275.09,275.09z"/>
  <path class="fil4" d="M10597.29 16204.58c0,151.81 -123.05,275.09 -275.09,275.09 -151.94,0 -275.22,-123.27 -275.22,-275.09 0,-151.81 123.27,-275.09 275.22,-275.09 152.04,0 275.09,123.27 275.09,275.09z"/>
  <path class="fil4" d="M11441.71 16204.58c0,151.81 -123.27,275.09 -275.09,275.09 -152.04,0 -275.09,-123.27 -275.09,-275.09 0,-151.81 123.05,-275.09 275.09,-275.09 151.81,0 275.09,123.27 275.09,275.09z"/>
  <path class="fil4" d="M12286.03 16204.58c0,151.81 -123.27,275.09 -275.18,275.09 -152.04,0 -275.09,-123.27 -275.09,-275.09 0,-151.81 123.05,-275.09 275.09,-275.09 151.91,0 275.18,123.27 275.18,275.09z"/>
  <path class="fil4" d="M13130.25 16204.58c0,151.81 -123.05,275.09 -275.09,275.09 -152.04,0 -275.09,-123.27 -275.09,-275.09 0,-151.81 123.05,-275.09 275.09,-275.09 152.04,0 275.09,123.27 275.09,275.09z"/>
  <path class="fil4" d="M13974.57 16204.58c0,151.81 -123.18,275.09 -275.22,275.09 -152.04,0 -275.09,-123.27 -275.09,-275.09 0,-151.81 123.05,-275.09 275.09,-275.09 152.04,0 275.22,123.27 275.22,275.09z"/>
  <path class="fil4" d="M14818.76 16204.58c0,151.81 -123.05,275.09 -275.09,275.09 -151.81,0 -275.09,-123.27 -275.09,-275.09 0,-151.81 123.27,-275.09 275.09,-275.09 152.04,0 275.09,123.27 275.09,275.09z"/>
  <path class="fil4" d="M9752.97 16924.13c0,151.81 -123.05,275.18 -275.09,275.18 -151.81,0 -275.09,-123.37 -275.09,-275.18 0,-151.81 123.27,-275.09 275.09,-275.09 152.04,0 275.09,123.27 275.09,275.09z"/>
  <path class="fil4" d="M10597.29 16924.13c0,151.81 -123.05,275.18 -275.09,275.18 -151.94,0 -275.22,-123.37 -275.22,-275.18 0,-151.81 123.27,-275.09 275.22,-275.09 152.04,0 275.09,123.27 275.09,275.09z"/>
  <path class="fil4" d="M11441.71 16924.13c0,151.81 -123.27,275.18 -275.09,275.18 -152.04,0 -275.09,-123.37 -275.09,-275.18 0,-151.81 123.05,-275.09 275.09,-275.09 151.81,0 275.09,123.27 275.09,275.09z"/>
  <path class="fil4" d="M12286.03 16924.13c0,151.81 -123.27,275.18 -275.18,275.18 -152.04,0 -275.09,-123.37 -275.09,-275.18 0,-151.81 123.05,-275.09 275.09,-275.09 151.91,0 275.18,123.27 275.18,275.09z"/>
  <path class="fil4" d="M13130.25 16924.13c0,151.81 -123.05,275.18 -275.09,275.18 -152.04,0 -275.09,-123.37 -275.09,-275.18 0,-151.81 123.05,-275.09 275.09,-275.09 152.04,0 275.09,123.27 275.09,275.09z"/>
  <path class="fil4" d="M13974.57 16924.13c0,151.81 -123.18,275.18 -275.22,275.18 -152.04,0 -275.09,-123.37 -275.09,-275.18 0,-151.81 123.05,-275.09 275.09,-275.09 152.04,0 275.22,123.27 275.22,275.09z"/>
  <path class="fil4" d="M14818.76 16924.13c0,151.81 -123.05,275.18 -275.09,275.18 -151.81,0 -275.09,-123.37 -275.09,-275.18 0,-151.81 123.27,-275.09 275.09,-275.09 152.04,0 275.09,123.27 275.09,275.09z"/>
  <path class="fil5" d="M15593.9 4700.42l0 -1728.27c0,-564.9 -462.39,-1027.29 -1027.29,-1027.29l-11594.2 0c-565.12,0 -1027.29,462.39 -1027.29,1027.29l0 1728.27c-428.97,79.53 -756.67,456.34 -756.67,907.31l0 6323.31c0,450.97 327.7,827.75 756.67,907.31l0 1728.24c0,564.9 462.17,1027.29 1027.29,1027.29l11594.2 0c564.9,0 1027.29,-462.39 1027.29,-1027.29l0 -1728.24c428.74,-79.56 756.67,-456.34 756.67,-907.31l0 -6323.31c0,-450.97 -327.92,-827.78 -756.67,-907.31z"/>
  <path class="fil6" d="M15026.96 13760.08c0,429.29 -351.35,780.61 -780.74,780.61l-10953.43 0c-429.62,0 -780.74,-351.32 -780.74,-780.61l0 -9981.37c0,-429.42 351.12,-780.64 780.74,-780.64l10953.43 0c429.39,0 780.74,351.22 780.74,780.64l0 9981.37z"/>
 </g>
</svg>
