<?xml version="1.0" encoding="UTF-8"?>
<!DOCTYPE svg PUBLIC "-//W3C//DTD SVG 1.1//EN" "http://www.w3.org/Graphics/SVG/1.1/DTD/svg11.dtd">
<!-- Creator: CorelDRAW 2018 (64-Bit Оценочная версия) -->
<svg xmlns="http://www.w3.org/2000/svg" xml:space="preserve" width="56.3245mm" height="56.3248mm" version="1.1" style="shape-rendering:geometricPrecision; text-rendering:geometricPrecision; image-rendering:optimizeQuality; fill-rule:evenodd; clip-rule:evenodd"
viewBox="0 0 18225.34 18225.44"
 xmlns:xlink="http://www.w3.org/1999/xlink">
 <defs>
  <style type="text/css">
   <![CDATA[
    .fil1 {fill:#2A4D2E;fill-rule:nonzero}
    .fil3 {fill:#3A6B40;fill-rule:nonzero}
    .fil2 {fill:#53995B;fill-rule:nonzero}
    .fil5 {fill:lightgrey;fill-rule:nonzero}
    .fil4 {fill:#F6D874;fill-rule:nonzero}
    .fil6 {fill:#F8F8F8;fill-rule:nonzero}
    .fil0 {fill:url(#id0)}
   ]]>
  </style>
  <radialGradient id="id0" gradientUnits="userSpaceOnUse" gradientTransform="matrix(8.78663 -0 -0 -8.78661 239252 -67083)" cx="-30726.05" cy="-6854.6" r="8998.43" fx="-30726.05" fy="-6854.6">
   <stop offset="0" style="stop-opacity:1; stop-color:#525255"/>
   <stop offset="1" style="stop-opacity:1; stop-color:#2E2A29"/>
  </radialGradient>
 </defs>
 <g id="Слой_x0020_1">
  <metadata id="CorelCorpID_0Corel-Layer"/>
  <path class="fil0" d="M17146.5 18225.44l-15382.3 0c-413.69,0 -775.1,-236.05 -955.91,-580.24 149.43,78.66 319.27,123.28 499.05,123.28l15382.33 0c593.21,0 1078.84,-485.59 1078.84,-1078.84l0 -12746.76 451.46 457.73 5.37 -0.68 0 12746.79c0,593.25 -485.59,1078.71 -1078.84,1078.71zm-476.92 -1320.39c-18.15,0 -35.85,-1.71 -53.1,-4.89 -3.2,-17.12 -4.89,-34.82 -4.89,-52.87 0,-158.33 128.17,-286.72 286.5,-286.72 18.15,0 35.85,1.68 53.1,4.89 3.17,17.25 4.89,35.04 4.89,53.33 0,158.1 -128.17,286.27 -286.5,286.27zm-15810.16 0c-18.15,0 -35.82,-1.71 -53.07,-4.89 -3.2,-17.12 -4.92,-34.82 -4.92,-52.87 0,-158.33 128.2,-286.72 286.53,-286.72 18.15,0 35.85,1.68 53.07,4.89 3.2,17.25 4.92,35.04 4.92,53.33 0,158.1 -128.2,286.27 -286.53,286.27zm16573.13 -13196.53c-122.02,-15.63 -235.37,-59.02 -333.41,-123.51 -82.19,-125 -129.92,-274.65 -129.92,-435.47 0,-438.25 355.35,-793.61 793.93,-793.61l5.37 0.36 0 -1048.94c0,-179.55 -44.52,-349.3 -122.96,-498.6 343.83,180.91 579.79,542.09 579.79,955.69l0 1049.04 -5.37 -0.45c-438.58,0 -793.93,355.35 -793.93,793.57 0,34.59 2.17,68.6 6.5,101.93zm-16747.18 -884.89l-456.86 -457.05c33.91,-4.47 67.37,-10.29 102.51,-10.29 159.14,0 307.3,47.27 431.17,128.3 64.49,98.53 107.52,212.2 122.38,334.71 -31.65,-3.88 -63.94,-5.82 -96.72,-5.82 -35.14,0 -68.6,5.69 -102.48,10.16zm15984.21 -1640.02c-18.15,0 -35.85,-1.71 -53.1,-4.92 -3.2,-17.21 -4.89,-34.91 -4.89,-53.07 0,-158.33 128.17,-286.53 286.5,-286.53 18.15,0 35.85,1.71 53.1,4.92 3.17,17.25 4.89,34.95 4.89,53.07 0,158.33 -128.17,286.53 -286.5,286.53zm-15810.16 0c-18.15,0 -35.82,-1.71 -53.07,-4.92 -3.2,-17.21 -4.92,-34.91 -4.92,-53.07 0,-158.33 128.2,-286.53 286.53,-286.53 18.15,0 35.85,1.71 53.07,4.92 3.2,17.25 4.92,34.95 4.92,53.07 0,158.33 -128.2,286.53 -286.53,286.53z"/>
  <path class="fil1" d="M16898.09 1412.16c-158.33,0 -286.5,-128.2 -286.5,-286.53 0,-158.33 128.17,-286.53 286.5,-286.53 158.33,0 286.53,128.2 286.53,286.53 0,158.33 -128.2,286.53 -286.53,286.53zm286.53 15435.14c0,158 -128.2,286.3 -286.53,286.3 -158.33,0 -286.5,-128.3 -286.5,-286.3 0,-158.33 128.17,-286.72 286.5,-286.72 158.33,0 286.53,128.4 286.53,286.72zm-16096.66 -15435.14c-158.33,0 -286.53,-128.2 -286.53,-286.53 0,-158.33 128.2,-286.53 286.53,-286.53 158.33,0 286.53,128.2 286.53,286.53 0,158.33 -128.2,286.53 -286.53,286.53zm0 15721.44c-158.33,0 -286.53,-128.3 -286.53,-286.3 0,-158.33 128.2,-286.72 286.53,-286.72 158.33,0 286.53,128.4 286.53,286.72 0,158 -128.2,286.3 -286.53,286.3zm16675.18 -14777.66l5.37 0.36 0 -1048.94c0,-593.25 -485.63,-1078.84 -1078.84,-1078.84l-15382.33 0c-593.21,0 -1078.84,485.59 -1078.84,1078.84l-228.51 830.69 228.51 228.54c33.91,-4.47 67.37,-10.29 102.51,-10.29 435.28,0 788.01,352.73 788.01,787.98 0,435.15 -352.73,787.88 -788.01,787.88 -35.14,0 -68.6,-5.82 -102.51,-10.26l0 12767.76c0,593.25 485.63,1078.84 1078.84,1078.84l15382.33 0c593.21,0 1078.84,-485.59 1078.84,-1078.84l0 -12746.76 -228.54 -228.54c0,0 -29.9,197.93 -138.46,142.47 -256.63,-131.63 -432.3,-398.84 -432.3,-707.28 0,-438.25 355.35,-793.61 793.93,-793.61z"/>
  <path class="fil2" d="M16669.58 1183.61c-158.33,0 -286.53,-128.2 -286.53,-286.53 0,-158.33 128.2,-286.5 286.53,-286.5 158.33,0 286.5,128.17 286.5,286.5 0,158.33 -128.17,286.53 -286.5,286.53zm286.5 15435.17c0,158.1 -128.17,286.27 -286.5,286.27 -158.33,0 -286.53,-128.17 -286.53,-286.27 0,-158.33 128.2,-286.75 286.53,-286.75 158.33,0 286.5,128.43 286.5,286.75zm-16096.66 -15435.17c-158.2,0 -286.5,-128.2 -286.5,-286.53 0,-158.33 128.3,-286.5 286.5,-286.5 158.33,0 286.53,128.17 286.53,286.5 0,158.33 -128.2,286.53 -286.53,286.53zm0 15721.44c-158.2,0 -286.5,-128.17 -286.5,-286.27 0,-158.33 128.3,-286.75 286.5,-286.75 158.33,0 286.53,128.43 286.53,286.75 0,158.1 -128.2,286.27 -286.53,286.27zm16675.18 -14777.63l5.37 0.45 0 -1049.04c0,-593.25 -485.59,-1078.84 -1078.84,-1078.84l-15382.3 0c-593.25,0 -1078.84,485.59 -1078.84,1078.84l0 1059.2c33.91,-4.47 67.56,-10.16 102.51,-10.16 435.24,0 787.98,352.6 787.98,787.88 0,435.24 -352.73,787.85 -787.98,787.85 -34.95,0 -68.6,-5.82 -102.51,-10.26l0 12767.79c0,593.25 485.59,1078.84 1078.84,1078.84l15382.3 0c593.25,0 1078.84,-485.59 1078.84,-1078.84l0 -12746.79 -5.37 0.68c-438.58,0 -793.93,-355.45 -793.93,-793.93 0,-438.32 355.35,-793.67 793.93,-793.67z"/>
  <path class="fil3" d="M14795.91 15823.49l-11595.01 0c-340.5,0 -643.79,-168.03 -831.01,-425.21 169.52,123.61 377.94,196.67 602.73,196.67l11594.98 0c564.93,0 1027.36,-462.42 1027.36,-1027.36l0 -1728.36c428.77,-79.57 756.72,-456.37 756.72,-907.38l0 -6323.74c0,-195.54 -61.64,-377.03 -166.32,-526.59 238.12,167.22 394.6,443.5 394.6,755.1l0 6323.74c0,451.03 -327.72,827.84 -756.69,907.41l0 1728.36c0,564.93 -462.2,1027.36 -1027.36,1027.36zm-12850.66 -2829.91c-145.55,-69.54 -270.32,-175.8 -362.08,-306.75 106.59,74.91 229.42,127.88 362.08,152.41l0 154.35zm13878.02 -8218.64c-71.58,-34.14 -148.17,-59.38 -228.32,-74.2l0 -1728.39c0,-224.4 -72.93,-432.62 -196.35,-602.15 256.95,187.22 424.66,490.28 424.66,830.69l0 1574.04z"/>
  <path class="fil3" d="M3118.83 957.6c-151.82,0 -275.11,-123.28 -275.11,-275.11 0,-151.92 123.28,-275.2 275.11,-275.2 152.05,0 275.11,123.28 275.11,275.2 0,151.82 -123.06,275.11 -275.11,275.11z"/>
  <path class="fil3" d="M3963.21 957.6c-151.82,0 -275.24,-123.28 -275.24,-275.11 0,-151.92 123.41,-275.2 275.24,-275.2 152.05,0 275.11,123.28 275.11,275.2 0,151.82 -123.06,275.11 -275.11,275.11z"/>
  <path class="fil3" d="M4807.68 957.6c-152.05,0 -275.11,-123.28 -275.11,-275.11 0,-151.92 123.06,-275.2 275.11,-275.2 151.82,0 275.11,123.28 275.11,275.2 0,151.82 -123.28,275.11 -275.11,275.11z"/>
  <path class="fil3" d="M5652.06 957.6c-152.05,0 -275.2,-123.28 -275.2,-275.11 0,-151.92 123.15,-275.2 275.2,-275.2 151.82,0 275.11,123.28 275.11,275.2 0,151.82 -123.28,275.11 -275.11,275.11z"/>
  <path class="fil3" d="M6496.34 957.6c-152.05,0 -275.11,-123.28 -275.11,-275.11 0,-151.92 123.06,-275.2 275.11,-275.2 152.05,0 275.11,123.28 275.11,275.2 0,151.82 -123.06,275.11 -275.11,275.11z"/>
  <path class="fil3" d="M7340.71 957.6c-152.18,0 -275.24,-123.28 -275.24,-275.11 0,-151.92 123.06,-275.2 275.24,-275.2 152.05,0 275.11,123.28 275.11,275.2 0,151.82 -123.06,275.11 -275.11,275.11z"/>
  <path class="fil3" d="M8184.96 957.6c-151.82,0 -275.11,-123.28 -275.11,-275.11 0,-151.92 123.28,-275.2 275.11,-275.2 152.05,0 275.11,123.28 275.11,275.2 0,151.82 -123.06,275.11 -275.11,275.11z"/>
  <path class="fil3" d="M3118.83 1677.2c-151.82,0 -275.11,-123.28 -275.11,-275.11 0,-151.82 123.28,-275.11 275.11,-275.11 152.05,0 275.11,123.28 275.11,275.11 0,151.82 -123.06,275.11 -275.11,275.11z"/>
  <path class="fil3" d="M3963.21 1677.2c-151.82,0 -275.24,-123.28 -275.24,-275.11 0,-151.82 123.41,-275.11 275.24,-275.11 152.05,0 275.11,123.28 275.11,275.11 0,151.82 -123.06,275.11 -275.11,275.11z"/>
  <path class="fil3" d="M4807.68 1677.2c-152.05,0 -275.11,-123.28 -275.11,-275.11 0,-151.82 123.06,-275.11 275.11,-275.11 151.82,0 275.11,123.28 275.11,275.11 0,151.82 -123.28,275.11 -275.11,275.11z"/>
  <path class="fil3" d="M5652.06 1677.2c-152.05,0 -275.2,-123.28 -275.2,-275.11 0,-151.82 123.15,-275.11 275.2,-275.11 151.82,0 275.11,123.28 275.11,275.11 0,151.82 -123.28,275.11 -275.11,275.11z"/>
  <path class="fil3" d="M6496.34 1677.2c-152.05,0 -275.11,-123.28 -275.11,-275.11 0,-151.82 123.06,-275.11 275.11,-275.11 152.05,0 275.11,123.28 275.11,275.11 0,151.82 -123.06,275.11 -275.11,275.11z"/>
  <path class="fil3" d="M7340.71 1677.2c-152.18,0 -275.24,-123.28 -275.24,-275.11 0,-151.82 123.06,-275.11 275.24,-275.11 152.05,0 275.11,123.28 275.11,275.11 0,151.82 -123.06,275.11 -275.11,275.11z"/>
  <path class="fil3" d="M8184.96 1677.2c-151.82,0 -275.11,-123.28 -275.11,-275.11 0,-151.82 123.28,-275.11 275.11,-275.11 152.05,0 275.11,123.28 275.11,275.11 0,151.82 -123.06,275.11 -275.11,275.11z"/>
  <path class="fil3" d="M9539.36 16541.61c-152.05,0 -275.11,-123.28 -275.11,-275.11 0,-151.82 123.06,-275.11 275.11,-275.11 151.82,0 275.11,123.28 275.11,275.11 0,151.82 -123.28,275.11 -275.11,275.11z"/>
  <path class="fil3" d="M10383.73 16541.61c-152.05,0 -275.11,-123.28 -275.11,-275.11 0,-151.82 123.06,-275.11 275.11,-275.11 152.05,0 275.11,123.28 275.11,275.11 0,151.82 -123.06,275.11 -275.11,275.11z"/>
  <path class="fil3" d="M11228.01 16541.61c-152.05,0 -275.11,-123.28 -275.11,-275.11 0,-151.82 123.06,-275.11 275.11,-275.11 152.05,0 275.07,123.28 275.07,275.11 0,151.82 -123.02,275.11 -275.07,275.11z"/>
  <path class="fil3" d="M12072.36 16541.61c-151.79,0 -275.07,-123.28 -275.07,-275.11 0,-151.82 123.28,-275.11 275.07,-275.11 152.05,0 275.11,123.28 275.11,275.11 0,151.82 -123.06,275.11 -275.11,275.11z"/>
  <path class="fil3" d="M12916.63 16541.61c-151.82,0 -275.11,-123.28 -275.11,-275.11 0,-151.82 123.28,-275.11 275.11,-275.11 152.05,0 275.11,123.28 275.11,275.11 0,151.82 -123.06,275.11 -275.11,275.11z"/>
  <path class="fil3" d="M13761.24 16541.61c-152.05,0 -275.24,-123.28 -275.24,-275.11 0,-151.82 123.19,-275.11 275.24,-275.11 151.82,0 275.11,123.28 275.11,275.11 0,151.82 -123.28,275.11 -275.11,275.11z"/>
  <path class="fil3" d="M14605.48 16541.61c-152.05,0 -275.11,-123.28 -275.11,-275.11 0,-151.82 123.06,-275.11 275.11,-275.11 151.82,0 275.11,123.28 275.11,275.11 0,151.82 -123.28,275.11 -275.11,275.11z"/>
  <path class="fil3" d="M9539.36 17261.34c-152.05,0 -275.11,-123.28 -275.11,-275.11 0,-151.95 123.06,-275.24 275.11,-275.24 151.82,0 275.11,123.28 275.11,275.24 0,151.82 -123.28,275.11 -275.11,275.11z"/>
  <path class="fil3" d="M10383.73 17261.34c-152.05,0 -275.11,-123.28 -275.11,-275.11 0,-151.95 123.06,-275.24 275.11,-275.24 152.05,0 275.11,123.28 275.11,275.24 0,151.82 -123.06,275.11 -275.11,275.11z"/>
  <path class="fil3" d="M11228.01 17261.34c-152.05,0 -275.11,-123.28 -275.11,-275.11 0,-151.95 123.06,-275.24 275.11,-275.24 152.05,0 275.07,123.28 275.07,275.24 0,151.82 -123.02,275.11 -275.07,275.11z"/>
  <path class="fil3" d="M12072.36 17261.34c-151.79,0 -275.07,-123.28 -275.07,-275.11 0,-151.95 123.28,-275.24 275.07,-275.24 152.05,0 275.11,123.28 275.11,275.24 0,151.82 -123.06,275.11 -275.11,275.11z"/>
  <path class="fil3" d="M12916.63 17261.34c-151.82,0 -275.11,-123.28 -275.11,-275.11 0,-151.95 123.28,-275.24 275.11,-275.24 152.05,0 275.11,123.28 275.11,275.24 0,151.82 -123.06,275.11 -275.11,275.11z"/>
  <path class="fil3" d="M13761.24 17261.34c-152.05,0 -275.24,-123.28 -275.24,-275.11 0,-151.95 123.19,-275.24 275.24,-275.24 151.82,0 275.11,123.28 275.11,275.24 0,151.82 -123.28,275.11 -275.11,275.11z"/>
  <path class="fil3" d="M14605.48 17261.34c-152.05,0 -275.11,-123.28 -275.11,-275.11 0,-151.95 123.06,-275.24 275.11,-275.24 151.82,0 275.11,123.28 275.11,275.24 0,151.82 -123.28,275.11 -275.11,275.11z"/>
  <path class="fil4" d="M3333.3 621.53c0,151.82 -123.28,275.11 -275.11,275.11 -152.05,0 -275.07,-123.28 -275.07,-275.11 0,-151.82 123.02,-275.11 275.07,-275.11 151.82,0 275.11,123.28 275.11,275.11z"/>
  <path class="fil4" d="M4177.68 621.53c0,151.82 -123.15,275.11 -275.2,275.11 -152.05,0 -275.11,-123.28 -275.11,-275.11 0,-151.82 123.06,-275.11 275.11,-275.11 152.05,0 275.2,123.28 275.2,275.11z"/>
  <path class="fil4" d="M5021.96 621.53c0,151.82 -123.06,275.11 -275.11,275.11 -152.05,0 -275.11,-123.28 -275.11,-275.11 0,-151.82 123.06,-275.11 275.11,-275.11 152.05,0 275.11,123.28 275.11,275.11z"/>
  <path class="fil4" d="M5866.33 621.53c0,151.82 -123.19,275.11 -275.24,275.11 -151.82,0 -275.11,-123.28 -275.11,-275.11 0,-151.82 123.28,-275.11 275.11,-275.11 152.05,0 275.24,123.28 275.24,275.11z"/>
  <path class="fil4" d="M6710.58 621.53c0,151.82 -123.06,275.11 -275.11,275.11 -151.82,0 -275.11,-123.28 -275.11,-275.11 0,-151.82 123.28,-275.11 275.11,-275.11 152.05,0 275.11,123.28 275.11,275.11z"/>
  <path class="fil4" d="M7555.08 621.53c0,151.82 -123.28,275.11 -275.11,275.11 -152.05,0 -275.11,-123.28 -275.11,-275.11 0,-151.82 123.06,-275.11 275.11,-275.11 151.82,0 275.11,123.28 275.11,275.11z"/>
  <path class="fil4" d="M8399.46 621.53c0,151.82 -123.28,275.11 -275.11,275.11 -152.05,0 -275.11,-123.28 -275.11,-275.11 0,-151.82 123.06,-275.11 275.11,-275.11 151.82,0 275.11,123.28 275.11,275.11z"/>
  <path class="fil4" d="M3333.3 1341.26c0,151.82 -123.28,275.11 -275.11,275.11 -152.05,0 -275.07,-123.28 -275.07,-275.11 0,-151.82 123.02,-275.11 275.07,-275.11 151.82,0 275.11,123.28 275.11,275.11z"/>
  <path class="fil4" d="M4177.68 1341.26c0,151.82 -123.15,275.11 -275.2,275.11 -152.05,0 -275.11,-123.28 -275.11,-275.11 0,-151.82 123.06,-275.11 275.11,-275.11 152.05,0 275.2,123.28 275.2,275.11z"/>
  <path class="fil4" d="M5021.96 1341.26c0,151.82 -123.06,275.11 -275.11,275.11 -152.05,0 -275.11,-123.28 -275.11,-275.11 0,-151.82 123.06,-275.11 275.11,-275.11 152.05,0 275.11,123.28 275.11,275.11z"/>
  <path class="fil4" d="M5866.33 1341.26c0,151.82 -123.19,275.11 -275.24,275.11 -151.82,0 -275.11,-123.28 -275.11,-275.11 0,-151.82 123.28,-275.11 275.11,-275.11 152.05,0 275.24,123.28 275.24,275.11z"/>
  <path class="fil4" d="M6710.58 1341.26c0,151.82 -123.06,275.11 -275.11,275.11 -151.82,0 -275.11,-123.28 -275.11,-275.11 0,-151.82 123.28,-275.11 275.11,-275.11 152.05,0 275.11,123.28 275.11,275.11z"/>
  <path class="fil4" d="M7555.08 1341.26c0,151.82 -123.28,275.11 -275.11,275.11 -152.05,0 -275.11,-123.28 -275.11,-275.11 0,-151.82 123.06,-275.11 275.11,-275.11 151.82,0 275.11,123.28 275.11,275.11z"/>
  <path class="fil4" d="M8399.46 1341.26c0,151.82 -123.28,275.11 -275.11,275.11 -152.05,0 -275.11,-123.28 -275.11,-275.11 0,-151.82 123.06,-275.11 275.11,-275.11 151.82,0 275.11,123.28 275.11,275.11z"/>
  <path class="fil4" d="M9753.63 16205.67c0,151.82 -123.06,275.11 -275.11,275.11 -151.82,0 -275.11,-123.28 -275.11,-275.11 0,-151.82 123.28,-275.11 275.11,-275.11 152.05,0 275.11,123.28 275.11,275.11z"/>
  <path class="fil4" d="M10598.01 16205.67c0,151.82 -123.06,275.11 -275.11,275.11 -151.95,0 -275.24,-123.28 -275.24,-275.11 0,-151.82 123.28,-275.11 275.24,-275.11 152.05,0 275.11,123.28 275.11,275.11z"/>
  <path class="fil4" d="M11442.48 16205.67c0,151.82 -123.28,275.11 -275.11,275.11 -152.05,0 -275.11,-123.28 -275.11,-275.11 0,-151.82 123.06,-275.11 275.11,-275.11 151.82,0 275.11,123.28 275.11,275.11z"/>
  <path class="fil4" d="M12286.86 16205.67c0,151.82 -123.28,275.11 -275.2,275.11 -152.05,0 -275.11,-123.28 -275.11,-275.11 0,-151.82 123.06,-275.11 275.11,-275.11 151.92,0 275.2,123.28 275.2,275.11z"/>
  <path class="fil4" d="M13131.13 16205.67c0,151.82 -123.06,275.11 -275.11,275.11 -152.05,0 -275.11,-123.28 -275.11,-275.11 0,-151.82 123.06,-275.11 275.11,-275.11 152.05,0 275.11,123.28 275.11,275.11z"/>
  <path class="fil4" d="M13975.51 16205.67c0,151.82 -123.19,275.11 -275.24,275.11 -152.05,0 -275.11,-123.28 -275.11,-275.11 0,-151.82 123.06,-275.11 275.11,-275.11 152.05,0 275.24,123.28 275.24,275.11z"/>
  <path class="fil4" d="M14819.76 16205.67c0,151.82 -123.06,275.11 -275.11,275.11 -151.82,0 -275.11,-123.28 -275.11,-275.11 0,-151.82 123.28,-275.11 275.11,-275.11 152.05,0 275.11,123.28 275.11,275.11z"/>
  <path class="fil4" d="M9753.63 16925.27c0,151.82 -123.06,275.2 -275.11,275.2 -151.82,0 -275.11,-123.38 -275.11,-275.2 0,-151.82 123.28,-275.11 275.11,-275.11 152.05,0 275.11,123.28 275.11,275.11z"/>
  <path class="fil4" d="M10598.01 16925.27c0,151.82 -123.06,275.2 -275.11,275.2 -151.95,0 -275.24,-123.38 -275.24,-275.2 0,-151.82 123.28,-275.11 275.24,-275.11 152.05,0 275.11,123.28 275.11,275.11z"/>
  <path class="fil4" d="M11442.48 16925.27c0,151.82 -123.28,275.2 -275.11,275.2 -152.05,0 -275.11,-123.38 -275.11,-275.2 0,-151.82 123.06,-275.11 275.11,-275.11 151.82,0 275.11,123.28 275.11,275.11z"/>
  <path class="fil4" d="M12286.86 16925.27c0,151.82 -123.28,275.2 -275.2,275.2 -152.05,0 -275.11,-123.38 -275.11,-275.2 0,-151.82 123.06,-275.11 275.11,-275.11 151.92,0 275.2,123.28 275.2,275.11z"/>
  <path class="fil4" d="M13131.13 16925.27c0,151.82 -123.06,275.2 -275.11,275.2 -152.05,0 -275.11,-123.38 -275.11,-275.2 0,-151.82 123.06,-275.11 275.11,-275.11 152.05,0 275.11,123.28 275.11,275.11z"/>
  <path class="fil4" d="M13975.51 16925.27c0,151.82 -123.19,275.2 -275.24,275.2 -152.05,0 -275.11,-123.38 -275.11,-275.2 0,-151.82 123.06,-275.11 275.11,-275.11 152.05,0 275.24,123.28 275.24,275.11z"/>
  <path class="fil4" d="M14819.76 16925.27c0,151.82 -123.06,275.2 -275.11,275.2 -151.82,0 -275.11,-123.38 -275.11,-275.2 0,-151.82 123.28,-275.11 275.11,-275.11 152.05,0 275.11,123.28 275.11,275.11z"/>
  <path class="fil5" d="M15594.95 4700.74l0 -1728.39c0,-564.93 -462.42,-1027.36 -1027.36,-1027.36l-11594.98 0c-565.16,0 -1027.36,462.42 -1027.36,1027.36l0 1728.39c-429,79.54 -756.72,456.37 -756.72,907.38l0 6323.74c0,451 327.72,827.81 756.72,907.38l0 1728.36c0,564.93 462.2,1027.36 1027.36,1027.36l11594.98 0c564.93,0 1027.36,-462.42 1027.36,-1027.36l0 -1728.36c428.77,-79.57 756.72,-456.37 756.72,-907.38l0 -6323.74c0,-451 -327.95,-827.84 -756.72,-907.38z"/>
  <path class="fil6" d="M15027.98 13761.01c0,429.32 -351.37,780.66 -780.79,780.66l-10954.17 0c-429.65,0 -780.79,-351.34 -780.79,-780.66l0 -9982.04c0,-429.45 351.15,-780.7 780.79,-780.7l10954.17 0c429.42,0 780.79,351.24 780.79,780.7l0 9982.04z"/>
 </g>
</svg>
